<?xml version="1.0" encoding="utf-8"?>
<!-- Generator: Adobe Illustrator 26.1.0, SVG Export Plug-In . SVG Version: 6.00 Build 0)  -->
<svg version="1.1" id="Layer_1" xmlns="http://www.w3.org/2000/svg" xmlns:xlink="http://www.w3.org/1999/xlink" x="0px" y="0px"
	 viewBox="0 0 397.98 315.69" style="enable-background:new 0 0 397.98 315.69;" xml:space="preserve">
<style type="text/css">
	.st0{fill:#00FE01;}
</style>
<path class="st0" d="M115.63,77.13c15.88,0,31.77-0.01,47.65,0.03c1.26,0,2.08-0.41,2.88-1.35c21.07-24.76,42.18-49.49,63.25-74.24
	c0.91-1.07,1.89-1.56,3.31-1.56c31.82,0.03,63.64,0.03,95.46,0.01c1.28,0,2.42,0.2,2.97,1.46c0.53,1.22,0.04,2.26-0.82,3.23
	c-10.53,11.81-20.63,23.98-30.93,35.99c-9.59,11.19-19.13,22.42-28.7,33.63c-0.79,0.93-1.26,1.91-0.68,3.1
	c0.57,1.16,1.63,1.47,2.84,1.47c7.32,0,14.65,0.04,21.97,0.03c21.92-0.01,43.84-0.03,65.76-0.04c0.36,0,0.72,0.01,1.08,0
	c1.22-0.04,2.24,0.23,2.78,1.48c0.55,1.24,0.03,2.18-0.76,3.08c-3.42,3.92-6.86,7.82-10.24,11.77
	c-16.47,19.28-32.92,38.57-49.39,57.85c-0.79,0.93-1.29,1.9-0.8,3.09c0.53,1.29,1.66,1.54,2.93,1.53
	c5.62-0.02,11.24-0.01,16.86-0.01c21.71,0.03,43.42,0.07,65.13,0.1c2.22,0,4.43-0.07,6.65-0.1c1.19-0.02,2.32,0.19,2.87,1.4
	c0.56,1.23,0.09,2.24-0.75,3.23c-19.15,22.42-38.27,44.85-57.4,67.28c-2.04,2.39-4.13,4.74-6.09,7.2c-1.02,1.29-2.16,1.81-3.82,1.8
	c-25.89-0.05-51.78-0.04-77.67-0.03c-5.78,0-11.55,0.08-17.33,0.08c-1.29,0-2.25,0.43-3.09,1.41
	c-12.83,15.07-25.69,30.11-38.53,45.17c-5.59,6.55-11.17,13.09-16.75,19.65c-2.63,3.1-5.26,6.21-7.84,9.36
	c-0.82,1-1.74,1.45-3.05,1.45c-31.93-0.02-63.85-0.02-95.78-0.01c-1.24,0-2.31-0.27-2.82-1.46c-0.49-1.14-0.1-2.15,0.72-3.11
	c10.03-11.7,20.04-23.42,30.03-35.15c9.83-11.53,19.63-23.08,29.46-34.62c0.8-0.93,1.26-1.88,0.67-3.09
	c-0.58-1.19-1.63-1.46-2.84-1.46c-7.01-0.01-14.03-0.04-21.04-0.04c-22.18,0.01-44.35,0.03-66.53,0.04c-0.36,0-0.72-0.01-1.08,0
	c-1.18,0.06-2.13-0.29-2.67-1.42c-0.56-1.15-0.15-2.1,0.6-2.97c2.83-3.28,5.68-6.53,8.49-9.82c17.02-19.96,34.03-39.92,51.04-59.88
	c0.1-0.12,0.2-0.24,0.3-0.35c0.79-0.86,1.17-1.81,0.63-2.96c-0.53-1.13-1.49-1.5-2.65-1.51c-3.15-0.02-6.29-0.03-9.44-0.03
	c-24.34,0-48.69,0-73.03,0c-2.11,0-4.22,0.09-6.34,0.13c-1.25,0.02-2.4-0.21-2.94-1.52c-0.5-1.2-0.02-2.16,0.78-3.09
	c21.31-24.97,42.62-49.95,63.9-74.95c0.85-1,1.81-1.35,3.1-1.34C83.86,77.14,99.75,77.13,115.63,77.13z M186.71,232.74
	c13.67,0,27.34-0.02,41,0.03c1.54,0.01,2.6-0.5,3.59-1.66c13.99-16.45,28.02-32.87,42.03-49.3c4.38-5.14,8.75-10.28,13.14-15.41
	c0.76-0.89,1.16-1.82,0.62-2.96c-0.53-1.13-1.5-1.49-2.65-1.5c-0.26,0-0.52,0-0.77,0c-27.23,0-54.47,0.01-81.7-0.03
	c-1.65,0-2.79,0.56-3.84,1.81c-8.76,10.34-17.58,20.64-26.37,30.95c-9.53,11.18-19.06,22.35-28.59,33.53
	c-1.53,1.8-1.13,3.87,0.87,4.43c0.53,0.15,1.12,0.12,1.69,0.12C159.37,232.74,173.04,232.74,186.71,232.74z M153.43,153.88
	c13.61,0,27.23-0.02,40.84,0.03c1.64,0.01,2.78-0.5,3.85-1.76c18.23-21.44,36.49-42.84,54.77-64.23c0.87-1.02,1.45-2.06,0.91-3.35
	c-0.57-1.36-1.84-1.46-3.13-1.46c-27.44,0.01-54.87,0.01-82.31-0.01c-1.4,0-2.41,0.45-3.33,1.54
	c-14.69,17.27-29.41,34.52-44.13,51.77c-3.68,4.31-7.35,8.64-11.05,12.93c-0.81,0.94-1.21,1.94-0.71,3.11
	c0.52,1.22,1.61,1.49,2.82,1.44c0.36-0.01,0.72,0,1.08,0C126.51,153.88,139.97,153.88,153.43,153.88z"/>
</svg>

