<?xml version="1.0" encoding="utf-8"?>
<!-- Generator: Adobe Illustrator 26.1.0, SVG Export Plug-In . SVG Version: 6.00 Build 0)  -->
<svg version="1.1" id="Layer_1" xmlns="http://www.w3.org/2000/svg" xmlns:xlink="http://www.w3.org/1999/xlink" x="0px" y="0px"
	 viewBox="0 0 252.13 200" style="enable-background:new 0 0 252.13 200;" xml:space="preserve">
<style type="text/css">
	.st0{fill:#00FE01;}
</style>
<path class="st0" d="M75.9,51.42c9.56,0,19.12-0.01,28.68,0.02c0.76,0,1.25-0.25,1.74-0.82C119,35.72,131.7,20.84,144.38,5.94
	c0.55-0.64,1.13-0.94,1.99-0.94c19.15,0.02,38.3,0.02,57.46,0.01c0.77,0,1.46,0.12,1.79,0.88c0.32,0.74,0.02,1.36-0.49,1.94
	c-6.33,7.11-12.42,14.43-18.61,21.66c-5.77,6.73-11.51,13.5-17.27,20.24c-0.48,0.56-0.76,1.15-0.41,1.86
	c0.34,0.7,0.98,0.88,1.71,0.88c4.41,0,8.81,0.02,13.22,0.02c13.19,0,26.38-0.02,39.58-0.02c0.22,0,0.43,0.01,0.65,0
	c0.73-0.03,1.35,0.14,1.68,0.89c0.33,0.75,0.02,1.31-0.46,1.86c-2.06,2.36-4.13,4.7-6.17,7.08c-9.91,11.6-19.81,23.22-29.72,34.82
	c-0.48,0.56-0.78,1.14-0.48,1.86c0.32,0.77,1,0.93,1.76,0.92c3.38-0.01,6.77-0.01,10.15,0c13.07,0.02,26.13,0.04,39.2,0.06
	c1.33,0,2.67-0.04,4-0.06c0.72-0.01,1.39,0.11,1.72,0.84c0.34,0.74,0.06,1.35-0.45,1.95c-11.52,13.49-23.03,26.99-34.55,40.49
	c-1.23,1.44-2.49,2.85-3.67,4.33c-0.62,0.77-1.3,1.09-2.3,1.08c-15.58-0.03-31.16-0.02-46.75-0.02c-3.48,0-6.95,0.05-10.43,0.05
	c-0.77,0-1.36,0.26-1.86,0.85c-7.72,9.07-15.46,18.12-23.19,27.18c-3.36,3.94-6.72,7.88-10.08,11.83c-1.59,1.87-3.16,3.74-4.72,5.63
	c-0.49,0.6-1.05,0.87-1.83,0.87c-19.21-0.01-38.43-0.01-57.64,0c-0.75,0-1.39-0.17-1.7-0.88c-0.29-0.68-0.06-1.29,0.43-1.87
	c6.04-7.04,12.06-14.09,18.08-21.15c5.92-6.94,11.82-13.89,17.73-20.83c0.48-0.56,0.76-1.13,0.4-1.86
	c-0.35-0.71-0.98-0.88-1.71-0.88c-4.22-0.01-8.44-0.02-12.66-0.02c-13.35,0-26.69,0.02-40.04,0.02c-0.22,0-0.43-0.01-0.65,0
	c-0.71,0.03-1.28-0.18-1.61-0.86c-0.34-0.69-0.09-1.27,0.36-1.79c1.7-1.97,3.42-3.93,5.11-5.91c10.24-12.01,20.48-24.03,30.72-36.04
	c0.06-0.07,0.12-0.14,0.18-0.21c0.48-0.52,0.7-1.09,0.38-1.78c-0.32-0.68-0.9-0.9-1.6-0.91c-1.89-0.01-3.79-0.02-5.68-0.02
	c-14.65,0-29.3,0-43.95,0c-1.27,0-2.54,0.05-3.81,0.08c-0.75,0.01-1.44-0.13-1.77-0.91c-0.3-0.72-0.01-1.3,0.47-1.86
	c12.83-15.03,25.65-30.06,38.46-45.11c0.51-0.6,1.09-0.81,1.86-0.81C56.78,51.43,66.34,51.42,75.9,51.42z M118.67,145.07
	c8.23,0,16.45-0.01,24.68,0.02c0.93,0,1.56-0.3,2.16-1c8.42-9.9,16.86-19.78,25.3-29.67c2.64-3.09,5.27-6.19,7.91-9.28
	c0.46-0.54,0.7-1.09,0.37-1.78c-0.32-0.68-0.9-0.89-1.6-0.9c-0.16,0-0.31,0-0.47,0c-16.39,0-32.78,0.01-49.17-0.02
	c-0.99,0-1.68,0.34-2.31,1.09c-5.27,6.22-10.58,12.42-15.87,18.63c-5.74,6.73-11.47,13.45-17.21,20.18
	c-0.92,1.08-0.68,2.33,0.52,2.67c0.32,0.09,0.68,0.07,1.02,0.07C102.22,145.07,110.45,145.07,118.67,145.07z M98.64,97.61
	c8.19,0,16.39-0.01,24.58,0.02c0.99,0,1.67-0.3,2.32-1.06c10.97-12.9,21.96-25.78,32.96-38.66c0.53-0.62,0.87-1.24,0.55-2.02
	c-0.34-0.82-1.11-0.88-1.89-0.88c-16.51,0.01-33.02,0.01-49.54-0.01c-0.84,0-1.45,0.27-2,0.93c-8.84,10.4-17.7,20.77-26.56,31.16
	c-2.21,2.6-4.42,5.2-6.65,7.78c-0.49,0.57-0.73,1.17-0.43,1.87c0.32,0.73,0.97,0.89,1.7,0.87c0.22-0.01,0.43,0,0.65,0
	C82.44,97.61,90.54,97.61,98.64,97.61z"/>
</svg>
